<?xml version="1.0" encoding="UTF-8"?>
<svg viewBox="0 0 117.34763 221.68059" xmlns="http://www.w3.org/2000/svg">
 <g transform="translate(-401.33 -252.95)">
  <path d="m410.36 471.42c-1.2654 0.37281-3.506 0.76624-4.1961-0.19982-1.6411-2.2975-2.3684-6.4091-2.3978-9.641-0.03722-4.0946 2.4884-8.6659 2.148-12.538-0.98634-0.60082-3.4742-3.3426-4.1461-5.5948 0.02055-2.7678-0.79932-6.0174-0.24977-8.9916 0.6732-3.6433 1.8047-7.7416 2.7974-10.84-1.8116-4.5665-1.0082-9.4867-0.34966-10.44 0.26939-0.39006-1.1704-0.62065-1.099-1.049 0.36001-0.67516 1.3393-2.3714 1.4986-3.8464 0.03844-0.35601-0.80911-0.75841-0.59944-0.99907 0.23331-0.26778 1.9126-2.3108 2.1979-3.0471 3.6452-1.3559 3.9422-2.2965 5.7946-4.7456 0.66666-2.7462 1.4167-7.3619 5.0952-8.8917 3.5805-1.489 8.6863-1.4201 12.488-2.2978 2.1344-0.49276 3.7299 0.44108 3.9963 0.39962-0.3897-2.0955 1.4802-3.9525 1.7983-4.0462-0.37373-0.52745-0.58037-1.0903-0.59944-1.7484-0.00774-0.26734 0.02079-0.59046 0.79925-0.79925 0.75209-0.74628 3.2109-3.9006 3.8464-5.8945-0.33645-1.3687-1.5847-8.7811-2.0481-10.74-0.42695-1.805-1.5129-6.8702-1.1989-9.5411-2.7454-2.9757-2.3042-6.5533-2.9972-9.591-1.1647-2.8611-2.8685-5.8554-4.0962-8.0425-1.5248-2.7166-5.669-4.9432-6.9592-5.09 0.02338-0.60762 0.24945-7.6974 0.26552-7.8479-0.71751-0.89886-5.5729-6.2591-6.9572-10.53-1.6169-4.9886-3.005-4.0971-4.0325-6.2541-5.7718-12.117-4.2015-22.951-6.5938-34.418-0.14649-0.70214-0.92584-1.4658-0.99907-2.148-0.21327-1.9872 0.12395-3.9712 0.59944-5.5948 0.49387-1.6863 2.2854-3.8901 1.7983-4.9953-0.96093-2.1806-1.9564-5.1718-2.1979-7.1933-0.10141-0.84886 0.70995-1.8444 1.7983-0.39962 1.0574 1.4037 1.0227 1.9335 1.1739 2.6975 0.79333 1.2198 1.0532 2.9985 1.4237 4.4958 0.03498 0.14139 0.32293 0.318 0.39963 0.19981 1.5264-2.352 1.8153-5.6982 3.0721-7.7428 0.74891-1.2182 1.4784 0.01114 1.5236 0.5495 0.22249 2.6499-0.93319 5.7537-0.87419 5.8945 0.3113-0.34471 0.52175-1.538 0.59944-1.7234 0.14493-0.34592 0.06216-0.36255 0.22479-1.1989 0.36785-1.8917 0.03133-1.178 0.54948-2.3728 0.25169-0.58036 1.7084-0.35206 1.6984 0.79926-0.00607 0.70268-0.30924 1.7586-0.19982 2.5976 0.2962 0.22991 0.58121 1.44 0.62442 2.2229 0.12539 2.272-0.12494 4.1208-0.09991 6.1692 0.00608 0.49824 0.43927 1.1 0.0999 1.8233-0.95497 2.0354-2.7767 3.356-4.246 5.37-0.24696 0.33848-0.67508 1.3958-0.57446 1.7983 1.0316 4.1266 1.7835 8.5735 3.7964 12.388 2.6016 4.9306 4.3999 8.8522 5.4215 11.1 1.1468 2.5229 1.2194 3.6179 1.7718 5.8844 0.72298 2.9663 3.0919 4.9679 4.8704 7.3181 0.08638 0.11414 0.37465 0.01665 0.44959 0.12488 0.52451 0.75762 1.0899 2.0048 1.6734 2.7474 0.14912 0.18979 0.7856 0.40549 0.92413 0.59944 0.52751 0.73852 0.48427 1.0703 1.049 1.8233 0.2345 0.31267 0.87795 0.55415 1.2238 0.77428 0.38674 0.2461 0.57138 0.81197 0.99906 0.99906s0.98155 0.16986 1.3987 0.79925c0.07989 0.12054 0.08437 0.30752 0.19981 0.39963 1.4495 1.1565 3.3262 1.8158 4.5957 3.197 0.28542 0.31053 0.32796 0.97766 1.1989 1.1989 1.4297 0.36315 3.0248 2.7133 3.7964 2.5976-0.10433-0.99101-1.0907-2.9129 0.19981-3.197 0.41301-0.10575-0.3129-1.1801-0.24977-1.3238-0.20973 0.335-0.0697 0.20092-0.44957 0.19981-0.06972-0.34856-0.35835-2.7427-0.49954-3.0721-0.05862-0.13679-0.32768 0.21578-0.37464 0.07493-0.15286-0.45858-0.04662-1.4278-0.2248-1.8732-0.08824-0.22061-0.36878 0.22324-0.42459 0-0.0774-0.30959-0.77689-0.91777-0.7493-1.2488 0.03901-0.46819 0.79387-1.324 0.97408-1.7484 2.0435-4.8116 5.4335-9.1368 11.989-9.591 1.0858-0.07523 2.3003 0.53668 3.3968 0.39962 1.0349-0.12936 2.0302-1.1068 2.9972-1.1989-0.21775 0.23363 0.01156 0.3172-0.19981 0.67436 0.55118 0.00958 2.2685 0.41984 2.3978 0.92414l-0.29972 0.39962c1.7544 0.80873 2.9295 1.9071 4.1711 2.9722l-0.52451 0.22478 1.9482 2.6226 0.29972 1.9732c0.10748 0.70755 0.64638 1.3102 0.79925 1.9981 0.11355 0.51098 0.06188 1.0725 0 1.5985-0.07132 0.60623-0.26354 1.1995-0.39962 1.7983-0.19693 0.86651-0.37352 1.7391-0.59944 2.5976-0.1071 0.40698-0.15554 0.83097-0.07494 1.3238 0.65206-0.05155 1.798-0.99504 2.8723-1.124 0.59085-0.0709 0.14198 0.92271 0.74931 0.94911 2.8801-1.4522 3.3251-0.72173 3.8464-0.7493 0.74308-1.4499 1.623-1.8217 2.6225-1.8233 1.645-0.00265 4.013-1.4185 4.9704-2.0731 1.0981-0.7508 6.9214-3.8963 8.2841-5.0054l0.28056 0.32804c1.7901-1.6819 3.6183-3.1405 5.1725-5.7129 5.3454-8.8474 10.759-19.405 13.637-29.273 0.5572-1.9106-2.8219-3.3133-3.7964-5.1951-0.95698-1.848-1.1598-4.0849-1.9981-5.9944-0.36058-0.82129-1.2269-1.3165-1.5236-1.8732-0.20776-0.38987 0.52349-1.0408 1.124-0.92413 0.22797 0.04427 0.32469 0.12358 0.57446 0.27474-0.59112-0.52719-0.80977-1.6763-0.57446-2.6725 0.29837-1.2632 0.9609-2.8206 1.5735-3.8714 0.20001-0.34303 0.62471-0.79498 0.99907-0.87418 0.46585-0.09856 1.027 0.30316 1.024 0.7493-0.00127 0.19098 0.08674 0.45019 0.19981 0.59944 0.23401-0.98751 1.0326-1.9608 1.5985-2.4477 0.42058-0.36185 1.765-0.02836 1.5485 0.59944-0.30191 0.87559-1.8898 4.3679-1.1489 4.6456 0.54812-1.0995 1.4437-3.8884 2.3978-4.9953 0.68017-0.78919 1.8889 0.47262 1.6235 1.2488-0.47687 1.3946-1.5476 2.8776-1.6235 4.5457-0.05738 1.2624 0.65477 3.6052 0.99906 3.7964 0.20212-0.76486 0.34445-2.3457 0.69935-3.172 0.42526-0.99011 0.46746-2.3242 0.87417-2.9972 0.72243-1.1955 1.3692-0.02046 1.5236 0.34967 0.17956 0.43046-0.09646 1.691-0.29971 2.4227-0.12978 0.46719-0.37883 0.92028-0.39963 1.3987-0.0458 1.0535-0.34763 2.2831 0.19981 3.197 1.9716 3.2915 2.4445 6.8741 2.123 10.465-0.07677 0.85743-0.79208 1.6398-0.92414 2.5226-1.6676 11.148-5.3612 21.417-9.1914 30.771-0.36748 0.89744-0.30163 1.9956-0.79925 2.7974-0.70125 1.1298-2.1757 1.8323-3.08 2.8559-3.4462 3.9009-8.0034 7.8501-10.507 9.9321l0.39962 7.9925c-0.24188 0.81864-2.1012 0.37486-2.9972 0.79926-0.36955 0.17504-0.47441 0.72497-0.79925 0.99906-1.8065 1.5242-3.9896 2.6883-5.5948 4.3959-1.5253 1.6226-3.1662 3.4749-3.7964 5.5948-1.5677 5.2732-2.258 11.043-2.7974 16.584-0.19322 1.9849 0.72449 4.0354 0.59944 5.9944-0.07477 1.1714-1.0161 2.2543-1.1989 3.3968-0.08361 0.5226 0.37603 1.0559 0.39963 1.5985 0.04301 0.98926-0.28475 2.0204-0.19981 2.9972 0.04827 0.55514 0.50737 1.0461 0.59943 1.5985 0.10776 0.6465-0.07708 1.3429 0 1.9981 0.05613 0.47703 0.12054 1.015 0.39963 1.3987 0.78658 1.0816 1.65 2.3916 2.7974 2.9972 1.2504 0.65993 3.5456-0.11175 4.3959 0.79926 1.0146 1.0871 0.7679 3.4712 1.1989 5.1951 0.43488 1.7395 0.87949 3.4818 1.3987 5.1951 0.14685 0.4846 0.16345 1.162 0.59944 1.3987 4.2263 2.2943 10.24 3.3914 13.387 6.1942 1.1157 0.99365-1.1191 3.6649-0.59944 5.1951 0.67919 1.9998 3.2132 3.4291 4.1961 5.3949 0.54899 1.098 0.01056 2.6293 0.39961 3.7964 0.27699 0.83096 1.5637 1.3455 1.5985 2.1979 0.09842 2.4112-1.0722 5.0591-1.1989 7.5929-0.07312 1.4624 0.84828 3.0687 0.59944 4.3959-0.15077 0.80416-1.3191 1.2436-1.7983 1.9981-2.6512 4.1742-4.8865 8.6439-7.5929 12.788-1.5563 2.3831-3.1685 5.0083-5.1951 6.7936-0.77078 0.67901-2.631-0.1625-3.197 0.59944-1.1657 1.5692-1.3565 4.2553-1.9981 6.394-1.1567 3.8556-1.1647 9.2731-3.3968 11.589-1.9868 2.0615-5.927 1.2111-7.1933-0.39962-2.3599-3.002-3.4772-9.9668-3.3847-13.955 0.05276-2.2734 2.5407-3.4552 2.5733-5.6754 0.03396-2.3089-1.9059-4.1647-2.0909-6.5696-0.21463-2.7903-0.15697-5.8636 1.104-8.1681 0.67057-1.2255 2.7611-1.8546 4.1961-1.9981 1.2292-0.12292 2.5867 1.0981 3.7964 1.1989 0.38877 0.03239 0.88113-0.44546 0.99907-0.79925 0.14848-0.44546-0.28943-1.0758-0.19981-1.5985 0.31001-1.8084 0.7774-3.7005 1.3987-5.3949 0.11137-0.30373 0.65124-0.34042 0.79925-0.59944 0.11841-0.2072 0.1845-0.6701 0-0.79925-0.48154-0.33708-1.4386-0.27302-1.9981-0.59944-0.23969-0.13981-0.12508-0.69726-0.39963-0.79924-4.3877-1.6297-9.272-2.4557-13.587-4.3959-4.2767-1.9228-7.9018-5.5045-12.189-7.1933-2.307-0.90882-5.0783-0.76524-7.5929-0.59944-3.5464 0.23383-7.06 1.1994-10.59 1.7983-3.9296 0.66662-7.9445 1.9488-11.789 1.9981-1.3506 0.01732-2.697-1.7983-3.7964-1.7983-0.56566 0-0.87786 1.1563-1.1989 1.7983-0.67805 1.3561-1.108 2.873-1.7983 4.1961-0.10893 0.2088-0.53112 0.17759-0.59944 0.39962-0.46451 1.5097-1.1732 3.2629-0.99906 4.7955 0.15885 1.3979 1.6885 2.6031 1.9981 3.9962 0.22325 1.0046-0.29621 2.1285-0.39962 3.197-0.09641 0.99622 0.01449 2.0328-0.19981 2.9972-0.18532 0.83393-0.96224 1.1298-0.79924 1.8982 0.30323 1.4296 1.8981 2.377 1.8482 3.8464-0.0834 2.4603-0.53557 5.853-2.4477 7.6928-1.0027 0.96477-2.254 1.7132-2.1979 3.147 0.06009 1.5383 0.82509 3.1275 0.79925 4.5957-0.03392 1.9281-0.36642 4.038-1.3987 5.5948-1.67 2.5184-4.1719 5.3629-6.9934 6.1942z" fill-rule="evenodd"/>
 </g>
</svg>
